%TF.GenerationSoftware,KiCad,Pcbnew,10.0.3*%
%TF.CreationDate,2026-06-17T16:24:36+08:00*%
%TF.ProjectId,har-shield,6861722d-7368-4696-956c-642e6b696361,rev?*%
%TF.SameCoordinates,Original*%
%TF.FileFunction,Copper,L2,Bot*%
%TF.FilePolarity,Positive*%
%FSLAX46Y46*%
G04 Gerber Fmt 4.6, Leading zero omitted, Abs format (unit mm)*
G04 Created by KiCad (PCBNEW 10.0.3) date 2026-06-17 16:24:36*
%MOMM*%
%LPD*%
G01*
G04 APERTURE LIST*
%TA.AperFunction,ComponentPad*%
%ADD10R,1.700000X1.700000*%
%TD*%
%TA.AperFunction,ComponentPad*%
%ADD11C,1.700000*%
%TD*%
%TA.AperFunction,ViaPad*%
%ADD12C,0.600000*%
%TD*%
%TA.AperFunction,Conductor*%
%ADD13C,0.200000*%
%TD*%
G04 APERTURE END LIST*
D10*
%TO.P,J1,1,Pin_1_1*%
%TO.N,3V3*%
X113450000Y-58990000D03*
D11*
%TO.P,J1,2,Pin_2_2*%
%TO.N,unconnected-(J1-Pin_2-Pad2)*%
X113450000Y-61530000D03*
%TO.P,J1,3,Pin_3_3*%
%TO.N,unconnected-(J1-Pin_3-Pad3)*%
X113450000Y-64070000D03*
%TO.P,J1,4,Pin_4_4*%
%TO.N,unconnected-(J1-Pin_4-Pad4)*%
X113450000Y-66610000D03*
%TO.P,J1,5,Pin_5_5*%
%TO.N,unconnected-(J1-Pin_5-Pad5)*%
X113450000Y-69150000D03*
%TO.P,J1,6,Pin_6_6*%
%TO.N,unconnected-(J1-Pin_6-Pad6)*%
X113450000Y-71690000D03*
%TO.P,J1,7,Pin_7_7*%
%TO.N,unconnected-(J1-Pin_7-Pad7)*%
X113450000Y-74230000D03*
%TO.P,J1,8,Pin_8_8*%
%TO.N,unconnected-(J1-Pin_8-Pad8)*%
X113450000Y-76770000D03*
%TO.P,J1,9,Pin_9_9*%
%TO.N,unconnected-(J1-Pin_9-Pad9)*%
X113450000Y-79310000D03*
%TO.P,J1,10,Pin_10_10*%
%TO.N,Net-(J1-Pin_10)*%
X113450000Y-81850000D03*
%TO.P,J1,11,Pin_11_11*%
%TO.N,Net-(J1-Pin_11)*%
X113450000Y-84390000D03*
%TO.P,J1,12,Pin_12_12*%
%TO.N,unconnected-(J1-Pin_12-Pad12)*%
X113450000Y-86930000D03*
%TO.P,J1,13,Pin_13_13*%
%TO.N,unconnected-(J1-Pin_13-Pad13)*%
X113450000Y-89470000D03*
%TO.P,J1,14,Pin_14_14*%
%TO.N,unconnected-(J1-Pin_14-Pad14)*%
X113450000Y-92010000D03*
%TO.P,J1,15,Pin_15_15*%
%TO.N,/MPU_INT*%
X113450000Y-94550000D03*
%TO.P,J1,16,Pin_16_16*%
%TO.N,/MAG_DRDY*%
X113450000Y-97090000D03*
%TO.P,J1,17,Pin_17_17*%
%TO.N,unconnected-(J1-Pin_17-Pad17)*%
X113450000Y-99630000D03*
%TO.P,J1,18,Pin_18_18*%
%TO.N,unconnected-(J1-Pin_18-Pad18)*%
X113450000Y-102170000D03*
%TO.P,J1,19,Pin_19_19*%
%TO.N,unconnected-(J1-Pin_19-Pad19)*%
X113450000Y-104710000D03*
%TO.P,J1,20,Pin_20_20*%
%TO.N,unconnected-(J1-Pin_20-Pad20)*%
X113450000Y-107250000D03*
%TO.P,J1,21,Pin_21_21*%
%TO.N,unconnected-(J1-Pin_21-Pad21)*%
X113450000Y-109790000D03*
%TO.P,J1,22,Pin_22_22*%
%TO.N,Net-(D1-K)*%
X113450000Y-112330000D03*
%TD*%
D10*
%TO.P,J2,1,Pin_1_1*%
%TO.N,unconnected-(J2-Pin_1-Pad1)*%
X135450000Y-58990000D03*
D11*
%TO.P,J2,2,Pin_2_2*%
%TO.N,unconnected-(J2-Pin_2-Pad2)*%
X135450000Y-61530000D03*
%TO.P,J2,3,Pin_3_3*%
%TO.N,unconnected-(J2-Pin_3-Pad3)*%
X135450000Y-64070000D03*
%TO.P,J2,4,Pin_4_4*%
%TO.N,unconnected-(J2-Pin_4-Pad4)*%
X135450000Y-66610000D03*
%TO.P,J2,5,Pin_5_5*%
%TO.N,unconnected-(J2-Pin_5-Pad5)*%
X135450000Y-69150000D03*
%TO.P,J2,6,Pin_6_6*%
%TO.N,unconnected-(J2-Pin_6-Pad6)*%
X135450000Y-71690000D03*
%TO.P,J2,7,Pin_7_7*%
%TO.N,unconnected-(J2-Pin_7-Pad7)*%
X135450000Y-74230000D03*
%TO.P,J2,8,Pin_8_8*%
%TO.N,unconnected-(J2-Pin_8-Pad8)*%
X135450000Y-76770000D03*
%TO.P,J2,9,Pin_9_9*%
%TO.N,unconnected-(J2-Pin_9-Pad9)*%
X135450000Y-79310000D03*
%TO.P,J2,10,Pin_10_10*%
%TO.N,unconnected-(J2-Pin_10-Pad10)*%
X135450000Y-81850000D03*
%TO.P,J2,11,Pin_11_11*%
%TO.N,unconnected-(J2-Pin_11-Pad11)*%
X135450000Y-84390000D03*
%TO.P,J2,12,Pin_12_12*%
%TO.N,unconnected-(J2-Pin_12-Pad12)*%
X135450000Y-86930000D03*
%TO.P,J2,13,Pin_13_13*%
%TO.N,unconnected-(J2-Pin_13-Pad13)*%
X135450000Y-89470000D03*
%TO.P,J2,14,Pin_14_14*%
%TO.N,unconnected-(J2-Pin_14-Pad14)*%
X135450000Y-92010000D03*
%TO.P,J2,15,Pin_15_15*%
%TO.N,unconnected-(J2-Pin_15-Pad15)*%
X135450000Y-94550000D03*
%TO.P,J2,16,Pin_16_16*%
%TO.N,unconnected-(J2-Pin_16-Pad16)*%
X135450000Y-97090000D03*
%TO.P,J2,17,Pin_17_17*%
%TO.N,unconnected-(J2-Pin_17-Pad17)*%
X135450000Y-99630000D03*
%TO.P,J2,18,Pin_18_18*%
%TO.N,unconnected-(J2-Pin_18-Pad18)*%
X135450000Y-102170000D03*
%TO.P,J2,19,Pin_19_19*%
%TO.N,unconnected-(J2-Pin_19-Pad19)*%
X135450000Y-104710000D03*
%TO.P,J2,20,Pin_20_20*%
%TO.N,unconnected-(J2-Pin_20-Pad20)*%
X135450000Y-107250000D03*
%TO.P,J2,21,Pin_21_21*%
%TO.N,unconnected-(J2-Pin_21-Pad21)*%
X135450000Y-109790000D03*
%TO.P,J2,22,Pin_22_22*%
%TO.N,unconnected-(J2-Pin_22-Pad22)*%
X135450000Y-112330000D03*
%TD*%
D10*
%TO.P,J104,1,Pin_1_1*%
%TO.N,3V3*%
X179500000Y-96000000D03*
D11*
%TO.P,J104,2,Pin_2_2*%
%TO.N,Net-(D1-K)*%
X179500000Y-98540000D03*
%TO.P,J104,3,Pin_3_3*%
%TO.N,Net-(J1-Pin_11)*%
X179500000Y-101080000D03*
%TO.P,J104,4,Pin_4_4*%
%TO.N,Net-(J1-Pin_10)*%
X179500000Y-103620000D03*
%TO.P,J104,5,Pin_5_5*%
%TO.N,/MAG_DRDY*%
X179500000Y-106160000D03*
%TD*%
D10*
%TO.P,J103,1,Pin_1_1*%
%TO.N,3V3*%
X179500000Y-63000000D03*
D11*
%TO.P,J103,2,Pin_2_2*%
%TO.N,Net-(D1-K)*%
X179500000Y-65540000D03*
%TO.P,J103,3,Pin_3_3*%
%TO.N,Net-(J1-Pin_11)*%
X179500000Y-68080000D03*
%TO.P,J103,4,Pin_4_4*%
%TO.N,Net-(J1-Pin_10)*%
X179500000Y-70620000D03*
%TO.P,J103,5,Pin_5_5*%
%TO.N,unconnected-(J103-Pin_5-Pad5)*%
X179500000Y-73160000D03*
%TO.P,J103,6,Pin_6_6*%
%TO.N,unconnected-(J103-Pin_6-Pad6)*%
X179500000Y-75700000D03*
%TO.P,J103,7,Pin_7_7*%
%TO.N,Net-(D1-K)*%
X179500000Y-78240000D03*
%TO.P,J103,8,Pin_8_8*%
%TO.N,/MPU_INT*%
X179500000Y-80780000D03*
%TD*%
D12*
%TO.N,Net-(J1-Pin_11)*%
X111550000Y-84390000D03*
%TO.N,Net-(J1-Pin_10)*%
X126942311Y-130513958D03*
%TO.N,Net-(J1-Pin_11)*%
X108450000Y-84390000D03*
%TO.N,Net-(D1-A)*%
X121887500Y-128827500D03*
%TO.N,/MAG_DRDY*%
X126350000Y-105890000D03*
%TO.N,Net-(D1-A)*%
X121950000Y-131890000D03*
%TO.N,Net-(J1-Pin_11)*%
X191500000Y-68000000D03*
%TO.N,Net-(D1-K)*%
X188000000Y-65500000D03*
X187100000Y-99000000D03*
%TO.N,Net-(J1-Pin_11)*%
X185000000Y-68080000D03*
%TO.N,Net-(J1-Pin_10)*%
X165500000Y-128900000D03*
%TO.N,Net-(D1-K)*%
X185900000Y-65500000D03*
%TO.N,/MPU_INT*%
X187100000Y-81000000D03*
%TD*%
%TO.N,/MAG_DRDY*%
D13*
X136160000Y-106160000D02*
X179500000Y-106160000D01*
X135890000Y-105890000D02*
X136160000Y-106160000D01*
X126350000Y-105890000D02*
X135890000Y-105890000D01*
%TO.N,Net-(J1-Pin_11)*%
X113450000Y-84450000D02*
X113450000Y-84390000D01*
X113450000Y-84450000D02*
X113500000Y-84500000D01*
X108450000Y-84390000D02*
X111500000Y-84390000D01*
%TO.N,Net-(J1-Pin_10)*%
X129318353Y-132890000D02*
X165390000Y-132890000D01*
X165390000Y-132890000D02*
X165500000Y-133000000D01*
X129318353Y-132890000D02*
X126942311Y-130513958D01*
%TO.N,/MAG_DRDY*%
X126350000Y-105890000D02*
X126510000Y-106050000D01*
%TO.N,Net-(D1-A)*%
X121950000Y-131890000D02*
X121950000Y-128890000D01*
X121950000Y-128890000D02*
X121887500Y-128827500D01*
%TO.N,Net-(D1-K)*%
X188000000Y-65500000D02*
X185900000Y-65500000D01*
%TO.N,Net-(J1-Pin_11)*%
X185080000Y-68000000D02*
X191500000Y-68000000D01*
X185000000Y-68080000D02*
X185080000Y-68000000D01*
%TO.N,Net-(D1-K)*%
X185040000Y-98540000D02*
X179500000Y-98540000D01*
X185500000Y-99000000D02*
X185040000Y-98540000D01*
%TO.N,Net-(J1-Pin_10)*%
X165500000Y-128900000D02*
X165500000Y-133000000D01*
%TO.N,Net-(D1-K)*%
X187100000Y-99000000D02*
X185500000Y-99000000D01*
%TO.N,/MPU_INT*%
X187100000Y-81000000D02*
X186880000Y-80780000D01*
X186880000Y-80780000D02*
X179500000Y-80780000D01*
%TD*%
M02*
