M48
; DRILL file KiCad 10.0.3 date 2026-06-17T16:24:40
; FORMAT={-:-/ absolute / metric / decimal}
; #@! TF.CreationDate,2026-06-17T16:24:40+08:00
; #@! TF.GenerationSoftware,Kicad,Pcbnew,10.0.3
; #@! TF.FileFunction,Plated,1,2,PTH
FMAT,2
METRIC
; #@! TA.AperFunction,Plated,PTH,ViaDrill
T1C0.300
; #@! TA.AperFunction,Plated,PTH,ComponentDrill
T2C1.000
%
G90
G05
T1
X108.45Y-84.39
X111.55Y-84.39
X121.887Y-128.827
X121.95Y-131.89
X126.35Y-105.89
X126.942Y-130.514
X165.5Y-128.9
X185.0Y-68.08
X185.9Y-65.5
X187.1Y-81.0
X187.1Y-99.0
X188.0Y-65.5
X191.5Y-68.0
T2
X113.45Y-58.99
X113.45Y-61.53
X113.45Y-64.07
X113.45Y-66.61
X113.45Y-69.15
X113.45Y-71.69
X113.45Y-74.23
X113.45Y-76.77
X113.45Y-79.31
X113.45Y-81.85
X113.45Y-84.39
X113.45Y-86.93
X113.45Y-89.47
X113.45Y-92.01
X113.45Y-94.55
X113.45Y-97.09
X113.45Y-99.63
X113.45Y-102.17
X113.45Y-104.71
X113.45Y-107.25
X113.45Y-109.79
X113.45Y-112.33
X135.45Y-58.99
X135.45Y-61.53
X135.45Y-64.07
X135.45Y-66.61
X135.45Y-69.15
X135.45Y-71.69
X135.45Y-74.23
X135.45Y-76.77
X135.45Y-79.31
X135.45Y-81.85
X135.45Y-84.39
X135.45Y-86.93
X135.45Y-89.47
X135.45Y-92.01
X135.45Y-94.55
X135.45Y-97.09
X135.45Y-99.63
X135.45Y-102.17
X135.45Y-104.71
X135.45Y-107.25
X135.45Y-109.79
X135.45Y-112.33
X179.5Y-63.0
X179.5Y-65.54
X179.5Y-68.08
X179.5Y-70.62
X179.5Y-73.16
X179.5Y-75.7
X179.5Y-78.24
X179.5Y-80.78
X179.5Y-96.0
X179.5Y-98.54
X179.5Y-101.08
X179.5Y-103.62
X179.5Y-106.16
M30
