%TF.GenerationSoftware,KiCad,Pcbnew,10.0.3*%
%TF.CreationDate,2026-06-17T16:24:36+08:00*%
%TF.ProjectId,har-shield,6861722d-7368-4696-956c-642e6b696361,rev?*%
%TF.SameCoordinates,Original*%
%TF.FileFunction,Soldermask,Top*%
%TF.FilePolarity,Negative*%
%FSLAX46Y46*%
G04 Gerber Fmt 4.6, Leading zero omitted, Abs format (unit mm)*
G04 Created by KiCad (PCBNEW 10.0.3) date 2026-06-17 16:24:36*
%MOMM*%
%LPD*%
G01*
G04 APERTURE LIST*
G04 Aperture macros list*
%AMRoundRect*
0 Rectangle with rounded corners*
0 $1 Rounding radius*
0 $2 $3 $4 $5 $6 $7 $8 $9 X,Y pos of 4 corners*
0 Add a 4 corners polygon primitive as box body*
4,1,4,$2,$3,$4,$5,$6,$7,$8,$9,$2,$3,0*
0 Add four circle primitives for the rounded corners*
1,1,$1+$1,$2,$3*
1,1,$1+$1,$4,$5*
1,1,$1+$1,$6,$7*
1,1,$1+$1,$8,$9*
0 Add four rect primitives between the rounded corners*
20,1,$1+$1,$2,$3,$4,$5,0*
20,1,$1+$1,$4,$5,$6,$7,0*
20,1,$1+$1,$6,$7,$8,$9,0*
20,1,$1+$1,$8,$9,$2,$3,0*%
G04 Aperture macros list end*
%ADD10R,1.700000X1.700000*%
%ADD11C,1.700000*%
%ADD12RoundRect,0.243750X-0.243750X-0.456250X0.243750X-0.456250X0.243750X0.456250X-0.243750X0.456250X0*%
%ADD13RoundRect,0.250000X-0.475000X0.250000X-0.475000X-0.250000X0.475000X-0.250000X0.475000X0.250000X0*%
%ADD14RoundRect,0.250000X-0.450000X0.262500X-0.450000X-0.262500X0.450000X-0.262500X0.450000X0.262500X0*%
G04 APERTURE END LIST*
D10*
%TO.C,J1*%
X113450000Y-58990000D03*
D11*
X113450000Y-61530000D03*
X113450000Y-64070000D03*
X113450000Y-66610000D03*
X113450000Y-69150000D03*
X113450000Y-71690000D03*
X113450000Y-74230000D03*
X113450000Y-76770000D03*
X113450000Y-79310000D03*
X113450000Y-81850000D03*
X113450000Y-84390000D03*
X113450000Y-86930000D03*
X113450000Y-89470000D03*
X113450000Y-92010000D03*
X113450000Y-94550000D03*
X113450000Y-97090000D03*
X113450000Y-99630000D03*
X113450000Y-102170000D03*
X113450000Y-104710000D03*
X113450000Y-107250000D03*
X113450000Y-109790000D03*
X113450000Y-112330000D03*
%TD*%
D10*
%TO.C,J2*%
X135450000Y-58990000D03*
D11*
X135450000Y-61530000D03*
X135450000Y-64070000D03*
X135450000Y-66610000D03*
X135450000Y-69150000D03*
X135450000Y-71690000D03*
X135450000Y-74230000D03*
X135450000Y-76770000D03*
X135450000Y-79310000D03*
X135450000Y-81850000D03*
X135450000Y-84390000D03*
X135450000Y-86930000D03*
X135450000Y-89470000D03*
X135450000Y-92010000D03*
X135450000Y-94550000D03*
X135450000Y-97090000D03*
X135450000Y-99630000D03*
X135450000Y-102170000D03*
X135450000Y-104710000D03*
X135450000Y-107250000D03*
X135450000Y-109790000D03*
X135450000Y-112330000D03*
%TD*%
D12*
%TO.C,D1*%
X121887500Y-123890000D03*
X120012500Y-123890000D03*
%TD*%
D13*
%TO.C,C1*%
X137900000Y-130840000D03*
X137900000Y-128940000D03*
%TD*%
%TO.C,C2*%
X152900000Y-130840000D03*
X152900000Y-128940000D03*
%TD*%
D10*
%TO.C,J104*%
X179500000Y-96000000D03*
D11*
X179500000Y-98540000D03*
X179500000Y-101080000D03*
X179500000Y-103620000D03*
X179500000Y-106160000D03*
%TD*%
D14*
%TO.C,R1*%
X155087500Y-123412500D03*
X155087500Y-121587500D03*
%TD*%
%TO.C,R2*%
X165500000Y-123412500D03*
X165500000Y-121587500D03*
%TD*%
D10*
%TO.C,J103*%
X179500000Y-63000000D03*
D11*
X179500000Y-65540000D03*
X179500000Y-68080000D03*
X179500000Y-70620000D03*
X179500000Y-73160000D03*
X179500000Y-75700000D03*
X179500000Y-78240000D03*
X179500000Y-80780000D03*
%TD*%
D14*
%TO.C,R3*%
X177412500Y-123412500D03*
X177412500Y-121587500D03*
%TD*%
M02*
