%TF.GenerationSoftware,KiCad,Pcbnew,10.0.3*%
%TF.CreationDate,2026-06-17T16:24:36+08:00*%
%TF.ProjectId,har-shield,6861722d-7368-4696-956c-642e6b696361,rev?*%
%TF.SameCoordinates,Original*%
%TF.FileFunction,Copper,L1,Top*%
%TF.FilePolarity,Positive*%
%FSLAX46Y46*%
G04 Gerber Fmt 4.6, Leading zero omitted, Abs format (unit mm)*
G04 Created by KiCad (PCBNEW 10.0.3) date 2026-06-17 16:24:36*
%MOMM*%
%LPD*%
G01*
G04 APERTURE LIST*
G04 Aperture macros list*
%AMRoundRect*
0 Rectangle with rounded corners*
0 $1 Rounding radius*
0 $2 $3 $4 $5 $6 $7 $8 $9 X,Y pos of 4 corners*
0 Add a 4 corners polygon primitive as box body*
4,1,4,$2,$3,$4,$5,$6,$7,$8,$9,$2,$3,0*
0 Add four circle primitives for the rounded corners*
1,1,$1+$1,$2,$3*
1,1,$1+$1,$4,$5*
1,1,$1+$1,$6,$7*
1,1,$1+$1,$8,$9*
0 Add four rect primitives between the rounded corners*
20,1,$1+$1,$2,$3,$4,$5,0*
20,1,$1+$1,$4,$5,$6,$7,0*
20,1,$1+$1,$6,$7,$8,$9,0*
20,1,$1+$1,$8,$9,$2,$3,0*%
G04 Aperture macros list end*
%TA.AperFunction,Conductor*%
%ADD10C,0.200000*%
%TD*%
%TA.AperFunction,ComponentPad*%
%ADD11R,1.700000X1.700000*%
%TD*%
%TA.AperFunction,ComponentPad*%
%ADD12C,1.700000*%
%TD*%
%TA.AperFunction,SMDPad,CuDef*%
%ADD13RoundRect,0.243750X-0.243750X-0.456250X0.243750X-0.456250X0.243750X0.456250X-0.243750X0.456250X0*%
%TD*%
%TA.AperFunction,SMDPad,CuDef*%
%ADD14RoundRect,0.250000X-0.475000X0.250000X-0.475000X-0.250000X0.475000X-0.250000X0.475000X0.250000X0*%
%TD*%
%TA.AperFunction,SMDPad,CuDef*%
%ADD15RoundRect,0.250000X-0.450000X0.262500X-0.450000X-0.262500X0.450000X-0.262500X0.450000X0.262500X0*%
%TD*%
%TA.AperFunction,ViaPad*%
%ADD16C,0.600000*%
%TD*%
G04 APERTURE END LIST*
%TO.N,3V3*%
D10*
X141950000Y-120890000D02*
X141950000Y-53390000D01*
%TO.N,Net-(D1-K)*%
X152900000Y-130890000D02*
X138450000Y-130890000D01*
%TO.N,Net-(J1-Pin_11)*%
X105450000Y-48390000D02*
X194377115Y-48390000D01*
%TO.N,Net-(D1-K)*%
X113450000Y-112390000D02*
X113450000Y-111390000D01*
X113450000Y-112390000D02*
X113450000Y-131390000D01*
X113450000Y-123890000D02*
X119950000Y-123890000D01*
X113450000Y-131390000D02*
X137900000Y-130890000D01*
%TO.N,3V3*%
X137900000Y-120890000D02*
X141950000Y-120890000D01*
X137900000Y-128390000D02*
X137900000Y-120890000D01*
X141950000Y-53390000D02*
X141950000Y-52890000D01*
X152900000Y-128890000D02*
X152900000Y-52890000D01*
%TO.N,Net-(D1-K)*%
X190500000Y-65500000D02*
X191000000Y-95500000D01*
%TO.N,Net-(J1-Pin_11)*%
X194375000Y-48500000D02*
X194000000Y-68000000D01*
%TO.N,3V3*%
X179500000Y-57000000D02*
X179500000Y-53000000D01*
X186500000Y-53000000D02*
X186500000Y-56000000D01*
X165500000Y-121500000D02*
X165500000Y-53000000D01*
X155087500Y-121500000D02*
X155087500Y-53000000D01*
X175500000Y-53000000D02*
X186500000Y-53000000D01*
X186500000Y-121500000D02*
X186500000Y-53000000D01*
X177500000Y-121500000D02*
X186500000Y-121500000D01*
X186500000Y-96000000D02*
X186500000Y-56000000D01*
X179500000Y-96000000D02*
X186500000Y-96000000D01*
%TD*%
D11*
%TO.P,J1,1,Pin_1_1*%
%TO.N,3V3*%
X113450000Y-58990000D03*
D12*
%TO.P,J1,2,Pin_2_2*%
%TO.N,unconnected-(J1-Pin_2-Pad2)*%
X113450000Y-61530000D03*
%TO.P,J1,3,Pin_3_3*%
%TO.N,unconnected-(J1-Pin_3-Pad3)*%
X113450000Y-64070000D03*
%TO.P,J1,4,Pin_4_4*%
%TO.N,unconnected-(J1-Pin_4-Pad4)*%
X113450000Y-66610000D03*
%TO.P,J1,5,Pin_5_5*%
%TO.N,unconnected-(J1-Pin_5-Pad5)*%
X113450000Y-69150000D03*
%TO.P,J1,6,Pin_6_6*%
%TO.N,unconnected-(J1-Pin_6-Pad6)*%
X113450000Y-71690000D03*
%TO.P,J1,7,Pin_7_7*%
%TO.N,unconnected-(J1-Pin_7-Pad7)*%
X113450000Y-74230000D03*
%TO.P,J1,8,Pin_8_8*%
%TO.N,unconnected-(J1-Pin_8-Pad8)*%
X113450000Y-76770000D03*
%TO.P,J1,9,Pin_9_9*%
%TO.N,unconnected-(J1-Pin_9-Pad9)*%
X113450000Y-79310000D03*
%TO.P,J1,10,Pin_10_10*%
%TO.N,Net-(J1-Pin_10)*%
X113450000Y-81850000D03*
%TO.P,J1,11,Pin_11_11*%
%TO.N,Net-(J1-Pin_11)*%
X113450000Y-84390000D03*
%TO.P,J1,12,Pin_12_12*%
%TO.N,unconnected-(J1-Pin_12-Pad12)*%
X113450000Y-86930000D03*
%TO.P,J1,13,Pin_13_13*%
%TO.N,unconnected-(J1-Pin_13-Pad13)*%
X113450000Y-89470000D03*
%TO.P,J1,14,Pin_14_14*%
%TO.N,unconnected-(J1-Pin_14-Pad14)*%
X113450000Y-92010000D03*
%TO.P,J1,15,Pin_15_15*%
%TO.N,/MPU_INT*%
X113450000Y-94550000D03*
%TO.P,J1,16,Pin_16_16*%
%TO.N,/MAG_DRDY*%
X113450000Y-97090000D03*
%TO.P,J1,17,Pin_17_17*%
%TO.N,unconnected-(J1-Pin_17-Pad17)*%
X113450000Y-99630000D03*
%TO.P,J1,18,Pin_18_18*%
%TO.N,unconnected-(J1-Pin_18-Pad18)*%
X113450000Y-102170000D03*
%TO.P,J1,19,Pin_19_19*%
%TO.N,unconnected-(J1-Pin_19-Pad19)*%
X113450000Y-104710000D03*
%TO.P,J1,20,Pin_20_20*%
%TO.N,unconnected-(J1-Pin_20-Pad20)*%
X113450000Y-107250000D03*
%TO.P,J1,21,Pin_21_21*%
%TO.N,unconnected-(J1-Pin_21-Pad21)*%
X113450000Y-109790000D03*
%TO.P,J1,22,Pin_22_22*%
%TO.N,Net-(D1-K)*%
X113450000Y-112330000D03*
%TD*%
D11*
%TO.P,J2,1,Pin_1_1*%
%TO.N,unconnected-(J2-Pin_1-Pad1)*%
X135450000Y-58990000D03*
D12*
%TO.P,J2,2,Pin_2_2*%
%TO.N,unconnected-(J2-Pin_2-Pad2)*%
X135450000Y-61530000D03*
%TO.P,J2,3,Pin_3_3*%
%TO.N,unconnected-(J2-Pin_3-Pad3)*%
X135450000Y-64070000D03*
%TO.P,J2,4,Pin_4_4*%
%TO.N,unconnected-(J2-Pin_4-Pad4)*%
X135450000Y-66610000D03*
%TO.P,J2,5,Pin_5_5*%
%TO.N,unconnected-(J2-Pin_5-Pad5)*%
X135450000Y-69150000D03*
%TO.P,J2,6,Pin_6_6*%
%TO.N,unconnected-(J2-Pin_6-Pad6)*%
X135450000Y-71690000D03*
%TO.P,J2,7,Pin_7_7*%
%TO.N,unconnected-(J2-Pin_7-Pad7)*%
X135450000Y-74230000D03*
%TO.P,J2,8,Pin_8_8*%
%TO.N,unconnected-(J2-Pin_8-Pad8)*%
X135450000Y-76770000D03*
%TO.P,J2,9,Pin_9_9*%
%TO.N,unconnected-(J2-Pin_9-Pad9)*%
X135450000Y-79310000D03*
%TO.P,J2,10,Pin_10_10*%
%TO.N,unconnected-(J2-Pin_10-Pad10)*%
X135450000Y-81850000D03*
%TO.P,J2,11,Pin_11_11*%
%TO.N,unconnected-(J2-Pin_11-Pad11)*%
X135450000Y-84390000D03*
%TO.P,J2,12,Pin_12_12*%
%TO.N,unconnected-(J2-Pin_12-Pad12)*%
X135450000Y-86930000D03*
%TO.P,J2,13,Pin_13_13*%
%TO.N,unconnected-(J2-Pin_13-Pad13)*%
X135450000Y-89470000D03*
%TO.P,J2,14,Pin_14_14*%
%TO.N,unconnected-(J2-Pin_14-Pad14)*%
X135450000Y-92010000D03*
%TO.P,J2,15,Pin_15_15*%
%TO.N,unconnected-(J2-Pin_15-Pad15)*%
X135450000Y-94550000D03*
%TO.P,J2,16,Pin_16_16*%
%TO.N,unconnected-(J2-Pin_16-Pad16)*%
X135450000Y-97090000D03*
%TO.P,J2,17,Pin_17_17*%
%TO.N,unconnected-(J2-Pin_17-Pad17)*%
X135450000Y-99630000D03*
%TO.P,J2,18,Pin_18_18*%
%TO.N,unconnected-(J2-Pin_18-Pad18)*%
X135450000Y-102170000D03*
%TO.P,J2,19,Pin_19_19*%
%TO.N,unconnected-(J2-Pin_19-Pad19)*%
X135450000Y-104710000D03*
%TO.P,J2,20,Pin_20_20*%
%TO.N,unconnected-(J2-Pin_20-Pad20)*%
X135450000Y-107250000D03*
%TO.P,J2,21,Pin_21_21*%
%TO.N,unconnected-(J2-Pin_21-Pad21)*%
X135450000Y-109790000D03*
%TO.P,J2,22,Pin_22_22*%
%TO.N,unconnected-(J2-Pin_22-Pad22)*%
X135450000Y-112330000D03*
%TD*%
D13*
%TO.P,D1,2,A_2*%
%TO.N,Net-(D1-A)*%
X121887500Y-123890000D03*
%TO.P,D1,1,K_1*%
%TO.N,Net-(D1-K)*%
X120012500Y-123890000D03*
%TD*%
D14*
%TO.P,C1,2*%
%TO.N,Net-(D1-K)*%
X137900000Y-130840000D03*
%TO.P,C1,1*%
%TO.N,3V3*%
X137900000Y-128940000D03*
%TD*%
%TO.P,C2,2*%
%TO.N,Net-(D1-K)*%
X152900000Y-130840000D03*
%TO.P,C2,1*%
%TO.N,3V3*%
X152900000Y-128940000D03*
%TD*%
D11*
%TO.P,J104,1,Pin_1_1*%
%TO.N,3V3*%
X179500000Y-96000000D03*
D12*
%TO.P,J104,2,Pin_2_2*%
%TO.N,Net-(D1-K)*%
X179500000Y-98540000D03*
%TO.P,J104,3,Pin_3_3*%
%TO.N,Net-(J1-Pin_11)*%
X179500000Y-101080000D03*
%TO.P,J104,4,Pin_4_4*%
%TO.N,Net-(J1-Pin_10)*%
X179500000Y-103620000D03*
%TO.P,J104,5,Pin_5_5*%
%TO.N,/MAG_DRDY*%
X179500000Y-106160000D03*
%TD*%
D15*
%TO.P,R1,2*%
%TO.N,Net-(J1-Pin_11)*%
X155087500Y-123412500D03*
%TO.P,R1,1*%
%TO.N,3V3*%
X155087500Y-121587500D03*
%TD*%
%TO.P,R2,2*%
%TO.N,Net-(J1-Pin_10)*%
X165500000Y-123412500D03*
%TO.P,R2,1*%
%TO.N,3V3*%
X165500000Y-121587500D03*
%TD*%
D11*
%TO.P,J103,1,Pin_1_1*%
%TO.N,3V3*%
X179500000Y-63000000D03*
D12*
%TO.P,J103,2,Pin_2_2*%
%TO.N,Net-(D1-K)*%
X179500000Y-65540000D03*
%TO.P,J103,3,Pin_3_3*%
%TO.N,Net-(J1-Pin_11)*%
X179500000Y-68080000D03*
%TO.P,J103,4,Pin_4_4*%
%TO.N,Net-(J1-Pin_10)*%
X179500000Y-70620000D03*
%TO.P,J103,5,Pin_5_5*%
%TO.N,unconnected-(J103-Pin_5-Pad5)*%
X179500000Y-73160000D03*
%TO.P,J103,6,Pin_6_6*%
%TO.N,unconnected-(J103-Pin_6-Pad6)*%
X179500000Y-75700000D03*
%TO.P,J103,7,Pin_7_7*%
%TO.N,Net-(D1-K)*%
X179500000Y-78240000D03*
%TO.P,J103,8,Pin_8_8*%
%TO.N,/MPU_INT*%
X179500000Y-80780000D03*
%TD*%
D15*
%TO.P,R3,2*%
%TO.N,Net-(D1-A)*%
X177412500Y-123412500D03*
%TO.P,R3,1*%
%TO.N,3V3*%
X177412500Y-121587500D03*
%TD*%
D16*
%TO.N,Net-(J1-Pin_11)*%
X111550000Y-84390000D03*
%TO.N,Net-(J1-Pin_10)*%
X126942311Y-130513958D03*
%TO.N,Net-(J1-Pin_11)*%
X108450000Y-84390000D03*
%TO.N,Net-(D1-A)*%
X121887500Y-128827500D03*
%TO.N,/MAG_DRDY*%
X126350000Y-105890000D03*
%TO.N,Net-(D1-A)*%
X121950000Y-131890000D03*
%TO.N,Net-(J1-Pin_11)*%
X191500000Y-68000000D03*
%TO.N,Net-(D1-K)*%
X188000000Y-65500000D03*
X187100000Y-99000000D03*
%TO.N,Net-(J1-Pin_11)*%
X185000000Y-68080000D03*
%TO.N,Net-(J1-Pin_10)*%
X165500000Y-128900000D03*
%TO.N,Net-(D1-K)*%
X185900000Y-65500000D03*
%TO.N,/MPU_INT*%
X187100000Y-81000000D03*
%TD*%
%TO.N,Net-(J1-Pin_10)*%
D10*
X126950000Y-106000000D02*
X126950000Y-130506269D01*
%TO.N,Net-(J1-Pin_11)*%
X113450000Y-84390000D02*
X111550000Y-84390000D01*
%TO.N,/MPU_INT*%
X190800000Y-54300000D02*
X191000000Y-54500000D01*
X190800000Y-52490000D02*
X190800000Y-54300000D01*
%TO.N,3V3*%
X113950000Y-52890000D02*
X186390000Y-52890000D01*
X186390000Y-52890000D02*
X186500000Y-53000000D01*
X113450000Y-53390000D02*
X113950000Y-52890000D01*
X113450000Y-58990000D02*
X113450000Y-53390000D01*
%TO.N,/MPU_INT*%
X113784315Y-52490000D02*
X190800000Y-52490000D01*
X112300000Y-53974315D02*
X113784315Y-52490000D01*
X112973654Y-83000000D02*
X112300000Y-82326346D01*
X113450000Y-94550000D02*
X115000000Y-93000000D01*
X115000000Y-93000000D02*
X115000000Y-83000000D01*
X112300000Y-82326346D02*
X112300000Y-53974315D01*
X115000000Y-83000000D02*
X112973654Y-83000000D01*
X187100000Y-63600000D02*
X187100000Y-81000000D01*
X187000000Y-58500000D02*
X187000000Y-63500000D01*
X191000000Y-54500000D02*
X187000000Y-58500000D01*
X187000000Y-63500000D02*
X187100000Y-63600000D01*
%TO.N,Net-(D1-K)*%
X111010000Y-112330000D02*
X113450000Y-112330000D01*
X110950000Y-112390000D02*
X111010000Y-112330000D01*
X192500000Y-51000000D02*
X192390000Y-50890000D01*
X192390000Y-50890000D02*
X110950000Y-50890000D01*
X110950000Y-50890000D02*
X110950000Y-112390000D01*
%TO.N,Net-(D1-A)*%
X177412500Y-133087500D02*
X177412500Y-123412500D01*
X177000000Y-133500000D02*
X177412500Y-133087500D01*
X121950000Y-133500000D02*
X177000000Y-133500000D01*
X121950000Y-131890000D02*
X121950000Y-133500000D01*
%TO.N,Net-(J1-Pin_11)*%
X105450000Y-48390000D02*
X105450000Y-84390000D01*
X105450000Y-84390000D02*
X108450000Y-84390000D01*
%TO.N,Net-(J1-Pin_10)*%
X126910000Y-81850000D02*
X126950000Y-81890000D01*
X126950000Y-81890000D02*
X126950000Y-106000000D01*
X113450000Y-81850000D02*
X126910000Y-81850000D01*
X126950000Y-130506269D02*
X126942311Y-130513958D01*
%TO.N,/MAG_DRDY*%
X126510000Y-106050000D02*
X126350000Y-105890000D01*
%TO.N,Net-(D1-A)*%
X121950000Y-128890000D02*
X121887500Y-128827500D01*
X121887500Y-123890000D02*
X121887500Y-128827500D01*
%TO.N,/MAG_DRDY*%
X113450000Y-97090000D02*
X122410000Y-106050000D01*
X122410000Y-106050000D02*
X126510000Y-106050000D01*
%TO.N,Net-(D1-K)*%
X192500000Y-65500000D02*
X192500000Y-51000000D01*
X188000000Y-65500000D02*
X192500000Y-65500000D01*
%TO.N,Net-(J1-Pin_11)*%
X191500000Y-68000000D02*
X194000000Y-68000000D01*
X185000000Y-68080000D02*
X185000000Y-68000000D01*
%TO.N,Net-(D1-K)*%
X187500000Y-99000000D02*
X187100000Y-99000000D01*
X191000000Y-95500000D02*
X187500000Y-99000000D01*
%TO.N,Net-(J1-Pin_11)*%
X185820000Y-101080000D02*
X185900000Y-101000000D01*
X185080000Y-68000000D02*
X185000000Y-68080000D01*
X180650000Y-102230000D02*
X179500000Y-101080000D01*
X179976346Y-104770000D02*
X180650000Y-104096346D01*
X155087500Y-129412500D02*
X155000000Y-129500000D01*
X155087500Y-123412500D02*
X155087500Y-129412500D01*
X180650000Y-104096346D02*
X180650000Y-102230000D01*
%TO.N,Net-(J1-Pin_10)*%
X165500000Y-123412500D02*
X169412500Y-123412500D01*
%TO.N,Net-(J1-Pin_11)*%
X185900000Y-101000000D02*
X182050000Y-97150000D01*
%TO.N,Net-(J1-Pin_10)*%
X169500000Y-104000000D02*
X169880000Y-103620000D01*
%TO.N,Net-(D1-K)*%
X179500000Y-78240000D02*
X185900000Y-71840000D01*
%TO.N,Net-(J1-Pin_11)*%
X179023654Y-77090000D02*
X179736346Y-77090000D01*
%TO.N,Net-(J1-Pin_10)*%
X165500000Y-123412500D02*
X165500000Y-128900000D01*
%TO.N,Net-(J1-Pin_11)*%
X179023654Y-104770000D02*
X179976346Y-104770000D01*
X179500000Y-101080000D02*
X185820000Y-101080000D01*
%TO.N,Net-(J1-Pin_10)*%
X179500000Y-70620000D02*
X169880000Y-70620000D01*
%TO.N,Net-(J1-Pin_11)*%
X155000000Y-129500000D02*
X173500000Y-129500000D01*
X179500000Y-68080000D02*
X185000000Y-68080000D01*
X185000000Y-71826346D02*
X185000000Y-68080000D01*
%TO.N,Net-(J1-Pin_10)*%
X170000000Y-71500000D02*
X170000000Y-103620000D01*
X169412500Y-123412500D02*
X169500000Y-123500000D01*
X169500000Y-123500000D02*
X169500000Y-104000000D01*
%TO.N,Net-(J1-Pin_11)*%
X182050000Y-97150000D02*
X178350000Y-97150000D01*
%TO.N,Net-(D1-K)*%
X179500000Y-65540000D02*
X185860000Y-65540000D01*
X185860000Y-65540000D02*
X185900000Y-65500000D01*
%TO.N,Net-(J1-Pin_11)*%
X179736346Y-77090000D02*
X185000000Y-71826346D01*
%TO.N,Net-(D1-K)*%
X185900000Y-71840000D02*
X185900000Y-65500000D01*
%TO.N,Net-(J1-Pin_10)*%
X169500000Y-71000000D02*
X170000000Y-71500000D01*
%TO.N,Net-(J1-Pin_11)*%
X178350000Y-97150000D02*
X178350000Y-77763654D01*
X178350000Y-77763654D02*
X179023654Y-77090000D01*
%TO.N,Net-(J1-Pin_10)*%
X169880000Y-103620000D02*
X170000000Y-103620000D01*
%TO.N,Net-(J1-Pin_11)*%
X173500000Y-129500000D02*
X173500000Y-110293654D01*
%TO.N,/MPU_INT*%
X186900000Y-80800000D02*
X187100000Y-81000000D01*
%TO.N,Net-(J1-Pin_11)*%
X173500000Y-110293654D02*
X179023654Y-104770000D01*
%TO.N,Net-(J1-Pin_10)*%
X169880000Y-70620000D02*
X169500000Y-71000000D01*
X170000000Y-103620000D02*
X179500000Y-103620000D01*
%TO.N,3V3*%
X179500000Y-57000000D02*
X179500000Y-63000000D01*
%TD*%
M02*
